<svg preserveAspectRatio="none" overflow="visible" style="display: block;" width="1117" height="462.734" viewBox="0 0 1117 462.734" fill="none" xmlns="http://www.w3.org/2000/svg">
<g id="Vector">
<mask id="path-1-inside-1_0_10" fill="white">
<path d="M195.609 367.23C233.872 332.561 214.098 336.989 259.552 374.948C259.681 375.075 259.681 375.075 259.809 375.201C309.757 422.144 361.631 450.486 421.594 429.482C423.499 428.778 425.625 428.945 427.358 429.881C427.628 430.027 427.923 430.152 428.142 430.368C428.361 430.584 428.669 430.696 428.941 430.838C509.495 472.992 606.354 431.174 676.341 384.311C712.036 359.765 745.677 331.422 775.466 301.055C832.22 245.635 793.956 258.541 849.168 267.272C863.208 269.372 879.818 270.386 894.338 270.669C895.039 270.682 895.766 270.725 896.379 271.066C900.701 273.47 892.173 282.29 890 287.643C889.872 288.023 889.743 288.276 889.486 288.655C860.853 337.116 772.385 512.233 904.766 449.221C927.878 438.339 952.018 422.397 972.818 408.985C988.869 397.217 1004.92 392.283 1018.02 380.009C1018.91 378.997 1019.56 377.732 1019.68 376.467C1020.58 371.279 1014.93 367.103 1009.93 369.254C1001.19 372.924 993.106 378.364 984.246 383.173C958.309 398.356 931.345 415.944 905.665 430.242C833.76 468.833 863.036 415.817 887.175 378.744C907.591 345.214 932.501 309.912 952.146 276.888C953.173 275.243 954.842 273.978 956.768 273.598C971.325 270.453 987.785 270.936 1001.1 266.959C1001.25 266.915 1001.4 266.883 1001.54 266.815C1001.65 266.765 1001.77 266.753 1001.88 266.727C1038.92 258.366 1073.78 242.429 1097.62 214.762C1130.11 179.334 1120.74 128.596 1077.08 105.82C989.125 60.3962 869.456 83.6776 771.871 88.2327C699.453 92.9143 489.775 124.04 419.026 112.273C412.991 111.261 411.065 103.796 415.816 99.9999C426.987 91.1428 437.13 81.4001 445.99 70.7716C480.016 32.3067 467.947 -14.3826 411.065 4.21718C367.024 19.5272 330.429 55.5881 306.804 96.5836C300.384 107.718 294.862 119.612 290.368 132.391C289.47 134.922 287.03 136.567 284.334 136.314C273.034 134.922 260.323 133.783 249.794 128.849C249.152 128.596 248.638 128.216 248.253 127.836C235.413 116.828 220.647 99.4938 202.799 98.102C191.757 97.7224 183.154 109.616 188.29 119.612C197.406 142.514 225.398 139.224 245.685 142.893C246.199 143.02 246.584 143.146 246.969 143.273C255.957 146.816 286.773 141.628 281.894 154.408C264.688 192.619 248.125 231.844 228.993 269.17C194.967 339.9 217.18 284.986 116.77 256.77C84.7987 248.166 43.5821 250.57 20.5984 276.002C-7.2646 304.471 -7.00781 354.071 22.2676 381.654C69.7758 423.915 150.925 406.834 195.609 367.23ZM463.838 428.344C461.141 427.837 458.445 427.205 455.749 426.446C449.714 424.927 448.558 417.082 453.822 413.793C454.978 413.034 456.134 412.274 457.418 411.515C476.678 399.748 509.292 374.062 521.747 360.144C529.065 352.299 530.478 349.389 530.478 346.1C530.478 345.973 530.478 345.846 530.478 345.72C534.843 282.961 504.156 171.616 601.098 171.362C641.416 171.362 662.217 195.277 661.96 235.133V348.139C661.96 348.201 662.01 348.25 662.072 348.25C662.172 348.25 662.221 348.372 662.149 348.442C604.034 405.286 539.124 448.439 463.838 428.344ZM931.987 208.309C924.797 223.746 915.295 240.827 907.976 256.011C907.591 256.896 906.692 257.402 905.665 257.402C893.467 256.896 847.884 256.77 832.091 248.672C828.496 246.901 827.34 242.472 829.266 239.056C849.125 204.715 882.408 172.263 916.867 153.141C917.017 153.057 917.156 152.953 917.319 152.899C917.52 152.832 917.719 152.709 917.911 152.619C961.051 132.397 943.26 187.607 931.987 208.309ZM401.563 29.0169C442.78 -1.35012 464.351 10.9232 430.967 54.8289C419.154 70.5186 403.361 85.9551 386.412 98.6081C380.12 102.91 323.753 144.412 325.422 123.028C325.422 122.269 325.679 121.51 325.935 120.877C341.472 84.3103 370.234 51.9187 401.563 29.0169ZM235.67 324.083C244.016 311.937 251.72 299.157 258.653 285.872C281.765 242.725 299.228 195.909 316.305 150.485C316.947 148.714 318.488 147.322 320.414 146.942C333.768 143.526 346.351 139.351 358.421 134.163C361.888 132.644 365.226 131.126 368.693 129.481C370.49 128.596 372.545 128.469 374.342 129.228C460.756 163.265 713.963 107.465 814.886 97.9754C898.878 88.0079 1021.3 77.4113 1080.94 139.704C1081.28 140.056 1081.58 140.439 1081.9 140.811C1082.06 140.999 1082.22 141.187 1082.34 141.375C1123.95 205.399 1031.75 244.876 973.589 256.264C968.453 257.276 964.087 252.594 965.371 247.66C972.176 221.215 983.09 191.734 975.772 164.783C970.25 143.02 949.835 134.163 926.851 134.542C877.93 135.175 837.869 166.554 802.687 199.199C770.844 227.035 737.46 267.525 701.636 307.002C697.27 311.81 689.053 308.647 689.31 302.067C692.006 231.337 698.169 147.195 606.106 146.942C580.939 146.942 557.699 154.408 541.135 170.35C536.641 174.652 529.065 171.616 529.065 165.416V155.546C529.065 151.75 525.855 148.587 522.003 148.587H509.934C506.082 148.587 502.872 151.75 502.872 155.546V202.109C502.872 209.068 493.755 211.599 489.903 205.778C453.181 150.485 362.786 141.628 321.185 211.093C283.563 280.81 330.815 368.495 414.789 365.205C442.908 365.205 469.744 356.475 488.619 337.369C491.187 334.712 491.316 330.663 488.876 327.879L482.713 320.92C480.145 318.01 475.394 317.63 472.569 320.414C429.683 361.03 344.553 340.279 336.464 279.798C335.951 275.623 339.161 271.827 343.526 271.827H495.938C499.79 271.827 503 274.99 503 278.786V344.708C503 346.985 501.844 349.01 500.047 350.401C450.099 385.577 393.603 423.282 335.052 400.381C297.174 386.842 266.999 358.12 236.825 331.928C234.386 329.777 234 326.487 235.67 324.083ZM471.285 251.582H343.655C339.289 251.582 335.951 247.66 336.721 243.358C342.884 209.195 371.261 184.648 407.341 185.154C443.679 184.775 471.927 209.195 478.347 243.358C478.989 247.66 475.651 251.582 471.285 251.582ZM55.3949 278.027C55.9085 277.774 56.4222 277.521 56.9358 277.268C103.032 261.578 158.886 291.692 194.967 318.516C202.898 324.988 183.918 341.597 178.545 348.776C178.181 349.262 177.865 349.781 177.496 350.264C177.459 350.312 177.419 350.359 177.376 350.401C155.034 375.581 125.245 392.156 90.7052 391.903C31.7692 395.066 8.78547 307.508 55.3949 278.027Z"/>
</mask>
<path d="M195.609 367.23C233.872 332.561 214.098 336.989 259.552 374.948C259.681 375.075 259.681 375.075 259.809 375.201C309.757 422.144 361.631 450.486 421.594 429.482C423.499 428.778 425.625 428.945 427.358 429.881C427.628 430.027 427.923 430.152 428.142 430.368C428.361 430.584 428.669 430.696 428.941 430.838C509.495 472.992 606.354 431.174 676.341 384.311C712.036 359.765 745.677 331.422 775.466 301.055C832.22 245.635 793.956 258.541 849.168 267.272C863.208 269.372 879.818 270.386 894.338 270.669C895.039 270.682 895.766 270.725 896.379 271.066C900.701 273.47 892.173 282.29 890 287.643C889.872 288.023 889.743 288.276 889.486 288.655C860.853 337.116 772.385 512.233 904.766 449.221C927.878 438.339 952.018 422.397 972.818 408.985C988.869 397.217 1004.92 392.283 1018.02 380.009C1018.91 378.997 1019.56 377.732 1019.68 376.467C1020.58 371.279 1014.93 367.103 1009.93 369.254C1001.19 372.924 993.106 378.364 984.246 383.173C958.309 398.356 931.345 415.944 905.665 430.242C833.76 468.833 863.036 415.817 887.175 378.744C907.591 345.214 932.501 309.912 952.146 276.888C953.173 275.243 954.842 273.978 956.768 273.598C971.325 270.453 987.785 270.936 1001.1 266.959C1001.25 266.915 1001.4 266.883 1001.54 266.815C1001.65 266.765 1001.77 266.753 1001.88 266.727C1038.92 258.366 1073.78 242.429 1097.62 214.762C1130.11 179.334 1120.74 128.596 1077.08 105.82C989.125 60.3962 869.456 83.6776 771.871 88.2327C699.453 92.9143 489.775 124.04 419.026 112.273C412.991 111.261 411.065 103.796 415.816 99.9999C426.987 91.1428 437.13 81.4001 445.99 70.7716C480.016 32.3067 467.947 -14.3826 411.065 4.21718C367.024 19.5272 330.429 55.5881 306.804 96.5836C300.384 107.718 294.862 119.612 290.368 132.391C289.47 134.922 287.03 136.567 284.334 136.314C273.034 134.922 260.323 133.783 249.794 128.849C249.152 128.596 248.638 128.216 248.253 127.836C235.413 116.828 220.647 99.4938 202.799 98.102C191.757 97.7224 183.154 109.616 188.29 119.612C197.406 142.514 225.398 139.224 245.685 142.893C246.199 143.02 246.584 143.146 246.969 143.273C255.957 146.816 286.773 141.628 281.894 154.408C264.688 192.619 248.125 231.844 228.993 269.17C194.967 339.9 217.18 284.986 116.77 256.77C84.7987 248.166 43.5821 250.57 20.5984 276.002C-7.2646 304.471 -7.00781 354.071 22.2676 381.654C69.7758 423.915 150.925 406.834 195.609 367.23ZM463.838 428.344C461.141 427.837 458.445 427.205 455.749 426.446C449.714 424.927 448.558 417.082 453.822 413.793C454.978 413.034 456.134 412.274 457.418 411.515C476.678 399.748 509.292 374.062 521.747 360.144C529.065 352.299 530.478 349.389 530.478 346.1C530.478 345.973 530.478 345.846 530.478 345.72C534.843 282.961 504.156 171.616 601.098 171.362C641.416 171.362 662.217 195.277 661.96 235.133V348.139C661.96 348.201 662.01 348.25 662.072 348.25C662.172 348.25 662.221 348.372 662.149 348.442C604.034 405.286 539.124 448.439 463.838 428.344ZM931.987 208.309C924.797 223.746 915.295 240.827 907.976 256.011C907.591 256.896 906.692 257.402 905.665 257.402C893.467 256.896 847.884 256.77 832.091 248.672C828.496 246.901 827.34 242.472 829.266 239.056C849.125 204.715 882.408 172.263 916.867 153.141C917.017 153.057 917.156 152.953 917.319 152.899C917.52 152.832 917.719 152.709 917.911 152.619C961.051 132.397 943.26 187.607 931.987 208.309ZM401.563 29.0169C442.78 -1.35012 464.351 10.9232 430.967 54.8289C419.154 70.5186 403.361 85.9551 386.412 98.6081C380.12 102.91 323.753 144.412 325.422 123.028C325.422 122.269 325.679 121.51 325.935 120.877C341.472 84.3103 370.234 51.9187 401.563 29.0169ZM235.67 324.083C244.016 311.937 251.72 299.157 258.653 285.872C281.765 242.725 299.228 195.909 316.305 150.485C316.947 148.714 318.488 147.322 320.414 146.942C333.768 143.526 346.351 139.351 358.421 134.163C361.888 132.644 365.226 131.126 368.693 129.481C370.49 128.596 372.545 128.469 374.342 129.228C460.756 163.265 713.963 107.465 814.886 97.9754C898.878 88.0079 1021.3 77.4113 1080.94 139.704C1081.28 140.056 1081.58 140.439 1081.9 140.811C1082.06 140.999 1082.22 141.187 1082.34 141.375C1123.95 205.399 1031.75 244.876 973.589 256.264C968.453 257.276 964.087 252.594 965.371 247.66C972.176 221.215 983.09 191.734 975.772 164.783C970.25 143.02 949.835 134.163 926.851 134.542C877.93 135.175 837.869 166.554 802.687 199.199C770.844 227.035 737.46 267.525 701.636 307.002C697.27 311.81 689.053 308.647 689.31 302.067C692.006 231.337 698.169 147.195 606.106 146.942C580.939 146.942 557.699 154.408 541.135 170.35C536.641 174.652 529.065 171.616 529.065 165.416V155.546C529.065 151.75 525.855 148.587 522.003 148.587H509.934C506.082 148.587 502.872 151.75 502.872 155.546V202.109C502.872 209.068 493.755 211.599 489.903 205.778C453.181 150.485 362.786 141.628 321.185 211.093C283.563 280.81 330.815 368.495 414.789 365.205C442.908 365.205 469.744 356.475 488.619 337.369C491.187 334.712 491.316 330.663 488.876 327.879L482.713 320.92C480.145 318.01 475.394 317.63 472.569 320.414C429.683 361.03 344.553 340.279 336.464 279.798C335.951 275.623 339.161 271.827 343.526 271.827H495.938C499.79 271.827 503 274.99 503 278.786V344.708C503 346.985 501.844 349.01 500.047 350.401C450.099 385.577 393.603 423.282 335.052 400.381C297.174 386.842 266.999 358.12 236.825 331.928C234.386 329.777 234 326.487 235.67 324.083ZM471.285 251.582H343.655C339.289 251.582 335.951 247.66 336.721 243.358C342.884 209.195 371.261 184.648 407.341 185.154C443.679 184.775 471.927 209.195 478.347 243.358C478.989 247.66 475.651 251.582 471.285 251.582ZM55.3949 278.027C55.9085 277.774 56.4222 277.521 56.9358 277.268C103.032 261.578 158.886 291.692 194.967 318.516C202.898 324.988 183.918 341.597 178.545 348.776C178.181 349.262 177.865 349.781 177.496 350.264C177.459 350.312 177.419 350.359 177.376 350.401C155.034 375.581 125.245 392.156 90.7052 391.903C31.7692 395.066 8.78547 307.508 55.3949 278.027Z" fill="#F7F7FA" stroke="#F8F5F0" stroke-width="2" mask="url(#path-1-inside-1_0_10)"/>
</g>
</svg>
